# xmcd
# Track frame offsets:
# 150
# 12549
# 26194
# 39586
# 53094
# 65754
# 80894
# 95653
# 108899
# 122848
# 136262
# 148621
# 161953
# 173195
# 187624
# 211621
# 227439
# 241375
#
# Disc length: 3434 seconds
# Revision: 0
# Processed by: cddbd v1.5.2PL0 Copyright (c) Steve Scherf et al.
# Submitted via: VisiTrax 2.11.3.279 - For more info visit www.synapsa.com
#
DISCID=f90d6812
DTITLE=John Lee Hooker - House of the blues, Disc 2
DYEAR=2011
DGENRE=Blues
TTITLE0=Walkin´ the boogie
TTITLE1=Love blues
TTITLE2=Union station blues
TTITLE3=It´s my own fault
TTITLE4=Leave my wife alone
TTITLE5=Ramblin´ by myself
TTITLE6=Sugar mama
TTITLE7=Down at the landing
TTITLE8=Louise
TTITLE9=Ground hog blues
TTITLE10=High priced woman
TTITLE11=Women amd money
TTITLE12=I need some money
TTITLE13=Come on and see about me
TTITLE14=I´m wanderin´
TTITLE15=Democrat man
TTITLE16=I want to talk about you
TTITLE17=Wednesday evenin´ blues
EXTD=
EXTT0=
EXTT1=
EXTT2=
EXTT3=
EXTT4=
EXTT5=
EXTT6=
EXTT7=
EXTT8=
EXTT9=
EXTT10=
EXTT11=
EXTT12=
EXTT13=
EXTT14=
EXTT15=
EXTT16=
EXTT17=Track 1-12\nOriginal released on Chess Records (LP-1438), 1959\n\nPers
EXTT17=onnel (track 1-12):\nJohn Lee Hooker - vocal, guitar\nEddi Kirklan
EXTT17=d - guitar\nBob Thurman - piano
PLAYORDER=
